1.9Hzhigh3min_grf.mot
version=1
nRows=17
nColumns 19
inDegrees=yes
endheader
time	1_ground_force_vx	1_ground_force_vy	1_ground_force_vz	1_ground_force_px	1_ground_force_py	1_ground_force_pz	1_ground_torque_x	1_ground_torque_y	1_ground_torque_z	2_ground_force_vx	2_ground_force_vy	2_ground_force_vz	2_ground_force_px	2_ground_force_py	2_ground_force_pz	2_ground_torque_x	2_ground_torque_y	2_ground_torque_z
            3.751500	            0.229326	            1.261314	            0.142410	           -0.233013	            0.005581	           -0.255695	            0.125021	           -0.194380	            0.102576	            0.748742	            0.367154	            1.080342	           -0.232311	            0.006130	           -0.833667	           -0.280566	           -0.359548	           -0.189664
            3.752000	           -0.182937	            1.981511	            0.329949	           -0.233013	            0.005581	           -0.255695	            0.172789	           -0.268098	           -0.009468	            0.470801	           -0.553264	            0.701751	           -0.232311	            0.006130	           -0.833667	           -0.224739	           -0.217419	           -0.226882
            3.752500	           -0.136282	            2.520744	            0.699002	           -0.233013	            0.005581	           -0.255695	            0.119200	           -0.194046	           -0.025880	            0.562075	            0.003034	           -0.281808	           -0.232311	            0.006130	           -0.833667	           -0.375721	           -0.019590	           -0.188410
            3.753000	           -0.044626	            1.439561	            0.602424	           -0.233013	            0.005581	           -0.255695	            0.067280	           -0.018070	           -0.096241	            0.563946	           -0.548407	           -0.565348	           -0.232311	            0.006130	           -0.833667	           -0.301295	            0.170005	           -0.263168
            3.753500	            0.228835	            2.703833	            0.056881	           -0.233013	            0.005581	           -0.255695	            0.184125	            0.110903	            0.047292	            0.420840	            0.186842	           -0.328019	           -0.232311	            0.006130	           -0.833667	           -0.282288	            0.104038	           -0.301112
            3.754000	            0.136208	            1.624187	           -0.406088	           -0.233013	            0.005581	           -0.255695	            0.110453	            0.129397	            0.024885	            0.611207	           -0.551585	            0.373195	           -0.232311	            0.006130	           -0.833667	           -0.300358	           -0.085353	           -0.226378
            3.754500	            0.227730	            2.525533	           -0.402451	           -0.233013	            0.005581	           -0.255695	            0.072324	           -0.046112	            0.009307	            0.754182	           -1.107037	            1.356654	           -0.232311	            0.006130	           -0.833667	           -0.243498	           -0.226873	           -0.245758
            3.755000	           -0.092992	            2.164743	           -0.357344	           -0.233013	            0.005581	           -0.255695	            0.164359	           -0.184730	           -0.042783	            0.752086	           -0.553755	            1.123984	           -0.232311	            0.006130	           -0.833667	           -0.261882	           -0.340306	           -0.265005
            3.755500	            0.320815	            2.342926	            0.146820	           -0.233013	            0.005581	           -0.255695	            0.086575	           -0.286376	            0.012157	            0.422745	           -0.186141	            0.984654	           -0.232311	            0.006130	           -0.833667	           -0.168579	           -0.160567	           -0.207854
            3.756000	            0.138809	            2.340531	            0.697546	           -0.233013	            0.005581	           -0.255695	            0.156972	           -0.138613	            0.023595	            0.373449	            0.369817	           -0.045773	           -0.232311	            0.006130	           -0.833667	           -0.300921	            0.075209	           -0.188104
            3.756500	            0.138647	            1.980393	            0.604288	           -0.233013	            0.005581	           -0.255695	            0.086187	           -0.000302	            0.099569	            0.420799	            0.187177	           -0.421875	           -0.232311	            0.006130	           -0.833667	           -0.301228	            0.160283	           -0.187801
            3.757000	            0.184116	            2.161257	            0.467380	           -0.233013	            0.005581	           -0.255695	            0.054149	            0.083302	            0.007965	            0.422732	           -0.364766	           -0.564631	           -0.232311	            0.006130	           -0.833667	           -0.338601	            0.094315	           -0.282272
            3.757500	            0.321402	            1.621077	            0.327152	           -0.233013	            0.005581	           -0.255695	            0.097778	            0.102097	           -0.042574	            0.562219	            0.001863	            0.046689	           -0.232311	            0.006130	           -0.833667	           -0.300188	           -0.123432	           -0.151112
            3.758000	            0.182653	            1.442947	           -0.177695	           -0.233013	            0.005581	           -0.255695	            0.157100	           -0.055352	            0.007140	            0.844874	           -0.367260	            0.561464	           -0.232311	            0.006130	           -0.833667	           -0.280848	           -0.283859	           -0.208244
            3.758500	            0.135930	            2.525712	           -0.448079	           -0.233013	            0.005581	           -0.255695	            0.074349	           -0.221861	            0.023437	            0.794283	            0.735452	            1.128564	           -0.232311	            0.006130	           -0.833667	           -0.243269	           -0.283790	           -0.189410
            3.759000	           -0.046660	            1.983700	           -0.174807	           -0.233013	            0.005581	           -0.255695	            0.081582	           -0.249422	           -0.040893	            0.847677	           -1.105025	            0.887333	           -0.232311	            0.006130	           -0.833667	           -0.318990	           -0.123366	           -0.188805
            3.759500	           -0.275045	            1.802014	            0.145980	           -0.233013	            0.005581	           -0.255695	            0.143333	           -0.129824	            0.062487	            0.567701	           -1.472663	            0.416857	           -0.232311	            0.006130	           -0.833667	           -0.432385	            0.065281	           -0.188082
